<svg width="22" height="22" viewBox="0 0 22 22" fill="none" xmlns="http://www.w3.org/2000/svg">
<g clip-path="url(#clip0_1_22)">
<path d="M10.8401 7.67414L13.8463 10.6803L13.8606 10.5228C13.8606 8.94339 12.577 7.65983 10.9976 7.65983L10.8401 7.67414Z" fill="black"/>
<path d="M10.9976 5.7512C13.6316 5.7512 15.7693 7.88892 15.7693 10.5229C15.7693 11.1384 15.6452 11.7253 15.4305 12.2645L18.2219 15.0559C19.6629 13.8535 20.7986 12.2979 21.5 10.5229C19.8443 6.33338 15.7741 3.3654 10.9977 3.3654C9.66158 3.3654 8.38281 3.60397 7.19467 4.03341L9.25602 6.08998C9.79516 5.88004 10.3821 5.7512 10.9976 5.7512Z" fill="black"/>
<path d="M1.45431 3.15064L3.63018 5.32651L4.06442 5.76074C2.48977 6.99183 1.24438 8.62852 0.5 10.5228C2.151 14.7123 6.22597 17.6803 10.9976 17.6803C12.4769 17.6803 13.8892 17.394 15.1824 16.8739L15.588 17.2795L18.3699 20.0661L19.5866 18.8541L2.67108 1.93387L1.45431 3.15064ZM6.73178 8.42332L8.20622 9.89776C8.16327 10.103 8.13464 10.3081 8.13464 10.5228C8.13464 12.1023 9.4182 13.3858 10.9976 13.3858C11.2124 13.3858 11.4175 13.3572 11.618 13.3142L13.0924 14.7887C12.4577 15.1036 11.7516 15.2945 10.9976 15.2945C8.36368 15.2945 6.22597 13.1568 6.22597 10.5228C6.22597 9.76892 6.41685 9.06271 6.73178 8.42332Z" fill="black"/>
</g>
<defs>
<clipPath id="clip0_1_22">
<rect width="21" height="21" fill="white" transform="translate(0.5 0.5)"/>
</clipPath>
</defs>
</svg>
